<svg xmlns="http://www.w3.org/2000/svg" viewBox="0 0 650 650"><path d="M626.66 355.2L516.62 465.23a87.749 87.749 0 01-62.04 25.7H325V325h289.15c15.76 0 23.65 19.05 12.51 30.2z" fill="#f985ac"/><path d="M294.8 626.66L184.77 516.62a87.749 87.749 0 01-25.7-62.04V325H325v289.15c0 15.76-19.06 23.65-30.2 12.51z" fill="#fbdd56"/><path d="M23.34 294.8l110.03-110.03a87.749 87.749 0 0162.04-25.7H325V325H35.85c-15.76 0-23.65-19.06-12.51-30.2z" fill="#83cceb"/><path d="M355.2 23.34l110.03 110.03a87.749 87.749 0 0125.7 62.04V325H325V35.85c0-15.76 19.05-23.65 30.2-12.51z" fill="#ff6e6e"/><path d="M325 325c58.8-25.57 148.32-95.55 165.93-129.59V325H325zm0 0c25.57 58.8 95.55 148.32 129.59 165.93H325V325zm0 0c-58.8 25.57-148.32 95.55-165.93 129.59V325H325zm0 0c-25.57-58.8-95.55-148.32-129.59-165.93H325V325z" opacity=".1"/><path d="M266.2 325c0 32.48 26.33 58.8 58.8 58.8 32.48 0 58.8-26.33 58.8-58.8s-26.33-58.8-58.8-58.8c-32.48-.01-58.8 26.32-58.8 58.8z" fill="#fff"/></svg>