<?xml version="1.0" encoding="utf-8"?>
<!-- Generator: Adobe Illustrator 23.0.1, SVG Export Plug-In . SVG Version: 6.00 Build 0)  -->
<svg version="1.1" id="图层_1" xmlns="http://www.w3.org/2000/svg" xmlns:xlink="http://www.w3.org/1999/xlink" x="0px" y="0px"
	 viewBox="0 0 650 650" style="enable-background:new 0 0 650 650;" xml:space="preserve">
<style type="text/css">
	.st0{fill:#F985AC;}
	.st1{fill:#FBDD56;}
	.st2{fill:#83CCEB;}
	.st3{fill:#FF6E6E;}
	.st4{opacity:0.1;enable-background:new    ;}
	.st5{fill:#FFFFFF;}
</style>
<g>
	<path class="st0" d="M626.66,355.2L516.62,465.23c-16.45,16.45-38.77,25.7-62.04,25.7H325V325h289.15
		C629.91,325,637.8,344.05,626.66,355.2z"/>
	<path class="st1" d="M294.8,626.66L184.77,516.62c-16.45-16.45-25.7-38.77-25.7-62.04V325H325v289.15
		C325,629.91,305.94,637.8,294.8,626.66z"/>
	<path class="st2" d="M23.34,294.8l110.03-110.03c16.45-16.45,38.77-25.7,62.04-25.7H325V325H35.85
		C20.09,325,12.2,305.94,23.34,294.8z"/>
	<path class="st3" d="M355.2,23.34l110.03,110.03c16.45,16.45,25.7,38.77,25.7,62.04V325H325V35.85
		C325,20.09,344.05,12.2,355.2,23.34z"/>
	<path class="st4" d="M325,325c58.8-25.57,148.32-95.55,165.93-129.59V325H325z M325,325c25.57,58.8,95.55,148.32,129.59,165.93H325
		V325z M325,325c-58.8,25.57-148.32,95.55-165.93,129.59V325L325,325L325,325z M325,325c-25.57-58.8-95.55-148.32-129.59-165.93H325
		V325z"/>
	<path class="st5" d="M266.2,325c0,32.48,26.33,58.8,58.8,58.8c32.48,0,58.8-26.33,58.8-58.8s-26.33-58.8-58.8-58.8
		C292.52,266.19,266.2,292.52,266.2,325z"/>
</g>
</svg>
