<?xml version="1.0" standalone="no"?>
<!DOCTYPE svg PUBLIC "-//W3C//DTD SVG 20010904//EN"
 "http://www.w3.org/TR/2001/REC-SVG-20010904/DTD/svg10.dtd">
<svg version="1.0" xmlns="http://www.w3.org/2000/svg"
 width="700.000000pt" height="700.000000pt" viewBox="0 0 700.000000 700.000000"
 preserveAspectRatio="xMidYMid meet">
<metadata>
Created by potrace 1.14, written by Peter Selinger 2001-2017
</metadata>
<g transform="translate(0.000000,700.000000) scale(0.100000,-0.100000)"
fill="#000000" stroke="none">
<path d="M3249 6376 c-2 -2 -42 -6 -89 -10 -47 -4 -98 -9 -115 -11 -375 -60
-672 -160 -992 -335 -307 -169 -662 -479 -885 -775 -276 -367 -462 -782 -552
-1235 -24 -122 -29 -160 -46 -325 -8 -83 -6 -521 3 -565 3 -14 8 -47 12 -75
101 -839 572 -1610 1277 -2089 54 -36 101 -66 104 -66 3 0 18 -8 32 -19 42
-28 188 -104 282 -145 47 -21 99 -44 115 -51 62 -27 212 -77 319 -105 712
-188 1479 -86 2116 284 83 48 260 163 270 175 3 4 23 20 46 36 150 108 389
347 526 525 42 53 198 285 221 328 131 243 209 425 275 642 40 129 86 341 97
445 4 33 8 71 11 85 12 71 5 164 -17 223 -31 84 -111 165 -194 196 -212 80
-431 -46 -459 -264 -4 -27 -9 -61 -11 -75 -2 -14 -6 -50 -9 -80 -3 -30 -8 -66
-10 -80 -3 -14 -9 -56 -15 -95 -21 -138 -115 -396 -211 -580 -54 -102 -173
-282 -245 -371 -350 -428 -817 -700 -1355 -790 -111 -19 -442 -26 -550 -12
-30 4 -75 10 -100 13 -209 28 -506 133 -714 253 -57 32 -195 121 -206 132 -3
3 -23 18 -45 35 -22 16 -42 32 -45 35 -3 3 -18 16 -35 28 -52 40 -202 191
-273 276 -69 82 -202 267 -202 282 0 4 -6 15 -14 23 -32 36 -136 260 -200 428
-32 86 -78 282 -100 430 -19 127 -23 187 -21 355 1 112 7 232 13 268 6 36 14
85 17 110 15 113 89 369 142 492 68 162 184 365 279 492 99 131 249 290 349
371 28 22 52 43 55 46 3 3 39 30 80 61 125 91 276 175 455 253 92 39 315 104
415 120 25 4 54 9 65 11 69 13 151 18 310 18 202 1 282 -6 438 -39 148 -31
414 -118 442 -146 5 -5 15 -9 22 -9 7 0 55 -23 105 -51 365 -201 654 -479 866
-834 51 -84 66 -102 112 -136 170 -126 417 -62 509 131 22 47 26 68 26 145 0
87 -2 93 -43 169 -72 134 -226 352 -332 471 -47 54 -256 263 -300 301 -66 57
-205 161 -295 220 -338 225 -744 380 -1139 434 -41 6 -85 13 -98 16 -27 6
-483 16 -489 10z"/>
<path d="M3499 3529 c-119 -17 -227 -104 -269 -217 -29 -77 -25 -175 12 -252
31 -65 58 -97 113 -133 88 -58 73 -56 749 -57 444 -1 636 2 667 10 89 24 168
90 210 178 26 54 35 175 17 239 -15 56 -71 135 -122 171 -92 67 -69 64 -732
66 -330 0 -621 -2 -645 -5z"/>
</g>
</svg>
