<?xml version="1.0" standalone="no"?>
<!DOCTYPE svg PUBLIC "-//W3C//DTD SVG 20010904//EN"
 "http://www.w3.org/TR/2001/REC-SVG-20010904/DTD/svg10.dtd">
<svg xmlns:dc="http://purl.org/dc/elements/1.1/" xmlns:cc="http://creativecommons.org/ns#" xmlns:rdf="http://www.w3.org/1999/02/22-rdf-syntax-ns#" xmlns:svg="http://www.w3.org/2000/svg" xmlns="http://www.w3.org/2000/svg" xmlns:xlink="http://www.w3.org/1999/xlink" id="svg422009" height="150px" width="600px" viewBox="200 300 600 150" version="1.1">
  <metadata id="metadata422015">
    <rdf:rdf>
      <cc:work rdf:about="">
        <dc:format>image/svg+xml</dc:format>
        <dc:type rdf:resource="http://purl.org/dc/dcmitype/StillImage"></dc:type>
      </cc:work>
    </rdf:rdf>
  </metadata>
  <defs id="defs422013"></defs>
  <linearGradient spreadMethod="pad" y2="30%" x2="-10%" y1="120%" x1="30%" id="3d_gradient2-logo-875a995b-592f-4659-b471-a300975e2b02">
    <stop id="stop421990" stop-opacity="1" stop-color="#ffffff" offset="0%"></stop>
    <stop id="stop421992" stop-opacity="1" stop-color="#000000" offset="100%"></stop>
  </linearGradient>
  <linearGradient gradientTransform="rotate(-30)" spreadMethod="pad" y2="30%" x2="-10%" y1="120%" x1="30%" id="3d_gradient3-logo-875a995b-592f-4659-b471-a300975e2b02">
    <stop id="stop421995" stop-opacity="1" stop-color="#ffffff" offset="0%"></stop>
    <stop id="stop421997" stop-opacity="1" stop-color="#cccccc" offset="50%"></stop>
    <stop id="stop421999" stop-opacity="1" stop-color="#000000" offset="100%"></stop>
  </linearGradient>
  <g id="logo-group">
    <image xlink:href="" id="container" x="272" y="144" width="480" height="480" style="display: none;" transform="translate(0 0)"></image>
    <g id="logo-center" transform="translate(0 0)">
      <image xlink:href="" id="icon_container" style="display: none;" x="0" y="0"></image>
      <g id="slogan" style="font-style:normal;font-weight:500;font-size:32px;line-height:1;font-family:Raleway;font-variant-ligatures:none;text-align:center;text-anchor:middle" transform="translate(0 0)"></g>
      <g id="title" style="font-style:normal;font-weight:700;font-size:72px;line-height:1;font-family:'Comfortaa Bold Alt2';font-variant-ligatures:none;text-align:center;text-anchor:middle" transform="translate(0 0)">
        <path id="path422018" style="font-style:normal;font-weight:700;font-size:72px;line-height:1;font-family:'Comfortaa Bold Alt2';font-variant-ligatures:none;text-align:center;text-anchor:middle" d="m 365.18862,0.864 c 5.904,0 11.304,-1.656 16.2,-4.968 1.00801,-0.72 1.584,-1.656 1.584,-2.952 v -20.16 c 0,-1.008 -0.36,-1.8 -1.08,-2.52 -0.72,-0.72 -1.584,-1.08 -2.52,-1.08 h -13.75199 c -0.93601,0 -1.80001,0.36 -2.52001,1.08 -0.72,0.72 -1.08,1.512 -1.08,2.52 0,1.008 0.36,1.872 1.08,2.592 0.72,0.648 1.584,1.008 2.52001,1.008 h 10.15199 v 14.544 c -3.312,1.8 -6.83999,2.736 -10.584,2.736 -6.048,0 -11.16,-2.16 -15.408,-6.408 -4.248,-4.176 -6.336,-9.36 -6.336,-15.336 0,-5.976 2.088,-11.16 6.336,-15.408 4.248,-4.248 9.36,-6.336 15.408,-6.336 4.752,0 9.072,1.44 12.96,4.248 0.792,0.648 1.656,0.864 2.66401,0.72 1.00799,-0.144 1.79999,-0.648 2.37599,-1.44 0.57601,-0.792 0.792,-1.656 0.64801,-2.664 -0.144,-1.008 -0.57601,-1.8 -1.36801,-2.376 -5.184,-3.816 -10.87199,-5.688 -17.28,-5.688 -3.95999,0 -7.704,0.792 -11.30399,2.304 -3.45601,1.44 -6.48001,3.528 -9.144,6.192 -2.73601,2.664 -4.752,5.688 -6.264,9.144 -1.51201,3.6 -2.23201,7.344 -2.23201,11.304 0,3.96 0.72,7.704 2.23201,11.232 1.512,3.528 3.52799,6.552 6.264,9.216 2.66399,2.664 5.68799,4.752 9.144,6.192 3.59999,1.512 7.344,2.304 11.30399,2.304 z" stroke-width="0" stroke-linejoin="miter" stroke-miterlimit="2" fill="#695ef5" stroke="#695ef5" transform="translate(0 307.98496) translate(295.65621034999987 43.72736) scale(1.11) translate(-336.24462 57.024)"></path>
        <path id="path422020" style="font-style:normal;font-weight:700;font-size:72px;line-height:1;font-family:'Comfortaa Bold Alt2';font-variant-ligatures:none;text-align:center;text-anchor:middle" d="m 427.06137,-39.528 c -1.00799,0 -1.872,0.36 -2.59199,1.08 -0.72001,0.72 -1.00801,1.512 -1.00801,2.52 V -18 c 0,3.096 -1.152,5.76 -3.31199,7.92 -2.23201,2.232 -4.82401,3.312 -7.92001,3.312 -3.096,0 -5.68799,-1.08 -7.92,-3.312 -2.15999,-2.16 -3.24,-4.824 -3.24,-7.92 v -17.928 c 0,-1.008 -0.35999,-1.8 -1.08,-2.52 -0.71999,-0.72 -1.512,-1.08 -2.51999,-1.08 -1.00801,0 -1.87201,0.36 -2.59201,1.08 -0.72,0.72 -1.008,1.512 -1.008,2.52 V -18 c 0,5.112 1.728,9.432 5.32801,13.032 3.59999,3.6 7.91999,5.4 13.03199,5.4 5.04001,0 9.43201,-1.8 13.032,-5.4 3.6,-3.6 5.40001,-7.92 5.40001,-13.032 v -17.928 c 0,-1.008 -0.36001,-1.8 -1.08001,-2.52 -0.72,-0.72 -1.512,-1.08 -2.52,-1.08 z" stroke-width="0" stroke-linejoin="miter" stroke-miterlimit="2" fill="#775ae0" stroke="#775ae0" transform="translate(0 307.98496) translate(365.1696828499999 63.14792) scale(1.11) translate(-393.86937 39.528)"></path>
        <path id="path422022" style="font-style:normal;font-weight:700;font-size:72px;line-height:1;font-family:'Comfortaa Bold Alt2';font-variant-ligatures:none;text-align:center;text-anchor:middle" d="m 461.4515,0.288 c 5.544,0 10.224,-1.944 14.112,-5.832 3.888,-3.888 5.904,-8.568 5.904,-14.112 0,-5.544 -2.016,-10.224 -5.904,-14.112 -3.888,-3.888 -8.568,-5.904 -14.112,-5.904 -5.544,0 -10.224,2.016 -14.112,5.904 -3.888,3.888 -5.832,8.568 -5.832,14.112 0,5.544 1.944,10.224 5.832,14.112 3.888,3.888 8.568,5.832 14.112,5.832 z m 0,-33.048 c 3.6,0 6.696,1.296 9.288,3.816 2.52,2.592 3.816,5.688 3.816,9.288 0,3.6 -1.296,6.696 -3.816,9.216 -2.592,2.592 -5.688,3.816 -9.288,3.816 -3.6,0 -6.696,-1.224 -9.216,-3.816 -2.592,-2.52 -3.816,-5.616 -3.816,-9.216 0,-3.6 1.224,-6.696 3.816,-9.288 2.52,-2.52 5.616,-3.816 9.216,-3.816 z" stroke-width="0" stroke-linejoin="miter" stroke-miterlimit="2" fill="#8556cc" stroke="#8556cc" transform="translate(0 307.98496) translate(423.5980071499999 62.988080000000004) scale(1.11) translate(-441.5075 39.672)"></path>
        <path id="path422024" style="font-style:normal;font-weight:700;font-size:72px;line-height:1;font-family:'Comfortaa Bold Alt2';font-variant-ligatures:none;text-align:center;text-anchor:middle" d="m 491.89175,-55.224 c -0.72,0.72 -1.008,1.584 -1.008,2.592 v 39.312 c 0,2.592 0.432,4.896 1.368,6.912 0.864,2.016 2.16,3.6 3.816,4.752 1.656,1.152 3.528,1.656 5.616,1.656 h 0.144 c 1.44,0 2.592,-0.288 3.528,-1.008 0.864,-0.648 1.368,-1.512 1.368,-2.592 0,-1.008 -0.36,-1.872 -0.936,-2.592 -0.576,-0.648 -1.368,-1.008 -2.304,-1.008 h -1.8 c -1.08,0 -1.944,-0.576 -2.592,-1.728 -0.72,-1.152 -1.008,-2.592 -1.008,-4.392 v -39.312 c 0,-1.008 -0.36,-1.872 -1.008,-2.592 -0.72,-0.648 -1.584,-1.008 -2.592,-1.008 -1.08,0 -1.944,0.36 -2.592,1.008 z" stroke-width="0" stroke-linejoin="miter" stroke-miterlimit="2" fill="#9352b7" stroke="#9352b7" transform="translate(0 307.98496) translate(483.9556446499999 44.60648) scale(1.11) translate(-490.88375 56.232)"></path>
        <path id="path422026" style="font-style:normal;font-weight:700;font-size:72px;line-height:1;font-family:'Comfortaa Bold Alt2';font-variant-ligatures:none;text-align:center;text-anchor:middle" d="m 528.79062,0.288 c 4.75201,0 8.928,-1.44 12.6,-4.464 0.79201,-0.576 1.15201,-1.368 1.29601,-2.304 0.072,-1.008 -0.144,-1.8 -0.792,-2.592 -0.57601,-0.72 -1.36801,-1.152 -2.304,-1.224 -0.93601,-0.072 -1.80001,0.144 -2.52001,0.792 -2.448,1.944 -5.184,2.88 -8.28,2.88 -3.6,0 -6.696,-1.224 -9.216,-3.816 -2.592,-2.52 -3.81599,-5.616 -3.81599,-9.216 0,-3.6 1.22399,-6.696 3.81599,-9.288 2.52,-2.52 5.616,-3.816 9.216,-3.816 2.952,0 5.616,0.936 7.99201,2.736 2.304,1.8 3.81599,4.104 4.60799,6.912 h -12.6 c -0.936,0 -1.79999,0.36 -2.448,1.008 -0.648,0.648 -1.008,1.512 -1.008,2.448 0,0.936 0.36,1.8 1.008,2.448 0.64801,0.648 1.512,1.008 2.448,1.008 h 16.56001 c 0.93599,0 1.72799,-0.36 2.376,-1.008 0.72,-0.648 1.07999,-1.512 1.07999,-2.448 0,-5.544 -2.016,-10.224 -5.904,-14.112 -3.88799,-3.888 -8.568,-5.904 -14.112,-5.904 -5.544,0 -10.22399,2.016 -14.112,5.904 -3.888,3.888 -5.83199,8.568 -5.83199,14.112 0,5.544 1.94399,10.224 5.83199,14.112 3.88801,3.888 8.568,5.832 14.112,5.832 z" stroke-width="0" stroke-linejoin="miter" stroke-miterlimit="2" fill="#a14ea2" stroke="#a14ea2" transform="translate(0 307.98496) translate(509.44444144999994 62.988080000000004) scale(1.11) translate(-508.84663 39.672)"></path>
        <path id="path422028" style="font-style:normal;font-weight:700;font-size:72px;line-height:1;font-family:'Comfortaa Bold Alt2';font-variant-ligatures:none;text-align:center;text-anchor:middle" d="m 562.13337,-7.344 c -1.008,-1.008 -2.15999,-1.512 -3.456,-1.512 -1.36799,0 -2.52,0.504 -3.528,1.512 -1.00799,1.008 -1.43999,2.16 -1.43999,3.528 0,1.368 0.432,2.52 1.43999,3.528 1.008,1.008 2.16001,1.44 3.528,1.44 1.36801,0 2.52,-0.432 3.528,-1.44 0.93601,-1.008 1.44,-2.16 1.44,-3.528 0,-1.368 -0.50399,-2.52 -1.512,-3.528 z" stroke-width="0" stroke-linejoin="miter" stroke-miterlimit="2" fill="#ae4a8d" stroke="#ae4a8d" transform="translate(0 307.98496) translate(564.79209395 97.19384) scale(1.11) translate(-553.70938 8.856)"></path>
        <path id="path422030" style="font-style:normal;font-weight:700;font-size:72px;line-height:1;font-family:'Comfortaa Bold Alt2';font-variant-ligatures:none;text-align:center;text-anchor:middle" d="m 589.29763,-49.32 c 1.00799,0 1.79999,-0.288 2.52,-1.008 0.72,-0.72 1.07999,-1.584 1.07999,-2.592 0,-1.008 -0.35999,-1.8 -1.07999,-2.52 -0.72001,-0.72 -1.51201,-1.08 -2.52,-1.08 -4.10401,0 -7.56001,1.44 -10.44001,4.32 -2.88,2.88 -4.31999,6.408 -4.31999,10.44 v 38.304 c 0,1.008 0.28799,1.872 1.00799,2.592 0.72,0.72 1.58401,1.008 2.592,1.008 1.008,0 1.80001,-0.288 2.52001,-1.008 0.71999,-0.72 1.07999,-1.584 1.07999,-2.592 v -28.152 h 7.20001 c 0.864,0 1.65599,-0.288 2.30399,-0.936 0.57601,-0.576 0.93601,-1.368 0.93601,-2.304 0,-0.864 -0.36,-1.656 -0.93601,-2.304 -0.648,-0.576 -1.43999,-0.936 -2.30399,-0.936 h -7.20001 v -3.672 c 0,-2.016 0.72,-3.816 2.232,-5.328 1.44,-1.44 3.24,-2.232 5.32801,-2.232 z" stroke-width="0" stroke-linejoin="miter" stroke-miterlimit="2" fill="#bc4679" stroke="#bc4679" transform="translate(0 307.98496) translate(593.4614514500001 44.28679999999999) scale(1.11) translate(-574.53763 56.52)"></path>
        <path id="path422032" style="font-style:normal;font-weight:700;font-size:72px;line-height:1;font-family:'Comfortaa Bold Alt2';font-variant-ligatures:none;text-align:center;text-anchor:middle" d="m 632.65512,-39.528 c -1.008,0 -1.87199,0.36 -2.59199,1.08 -0.72001,0.72 -1.00801,1.512 -1.00801,2.52 V -18 c 0,3.096 -1.15199,5.76 -3.312,7.92 -2.232,2.232 -4.824,3.312 -7.92,3.312 -3.096,0 -5.68799,-1.08 -7.91999,-3.312 -2.16001,-2.16 -3.24,-4.824 -3.24,-7.92 v -17.928 c 0,-1.008 -0.36,-1.8 -1.08001,-2.52 -0.72,-0.72 -1.51199,-1.08 -2.51999,-1.08 -1.00801,0 -1.872,0.36 -2.592,1.08 -0.72001,0.72 -1.00801,1.512 -1.00801,2.52 V -18 c 0,5.112 1.72801,9.432 5.328,13.032 3.6,3.6 7.92001,5.4 13.032,5.4 5.04,0 9.43201,-1.8 13.03201,-5.4 3.59999,-3.6 5.4,-7.92 5.4,-13.032 v -17.928 c 0,-1.008 -0.36001,-1.8 -1.08001,-2.52 -0.72,-0.72 -1.51199,-1.08 -2.52,-1.08 z" stroke-width="0" stroke-linejoin="miter" stroke-miterlimit="2" fill="#ca4264" stroke="#ca4264" transform="translate(0 307.98496) translate(626.6787453500001 63.14792) scale(1.11) translate(-599.46312 39.528)"></path>
        <path id="path422034" style="font-style:normal;font-weight:700;font-size:72px;line-height:1;font-family:'Comfortaa Bold Alt2';font-variant-ligatures:none;text-align:center;text-anchor:middle" d="m 682.45325,0.216 c 1.008,0 1.872,-0.36 2.592,-1.08 0.72,-0.72 1.008,-1.584 1.008,-2.592 V -21.96 c 0,-5.04 -1.8,-9.36 -5.328,-12.96 -3.6,-3.6 -7.992,-5.4 -13.032,-5.4 -5.112,0 -9.432,1.8 -13.032,5.4 -3.6,3.6 -5.4,7.92 -5.4,12.96 v 18.504 c 0,1.008 0.36,1.872 1.08,2.592 0.72,0.72 1.584,1.008 2.52,1.008 1.008,0 1.872,-0.288 2.592,-1.008 0.72,-0.72 1.008,-1.584 1.008,-2.592 V -21.96 c 0,-3.024 1.152,-5.688 3.312,-7.848 2.16,-2.232 4.824,-3.312 7.92,-3.312 3.096,0 5.688,1.08 7.92,3.312 2.16,2.16 3.24,4.824 3.24,7.848 v 18.576 c 0,0.936 0.36,1.8 1.08,2.52 0.72,0.72 1.584,1.08 2.52,1.08 z" stroke-width="0" stroke-linejoin="miter" stroke-miterlimit="2" fill="#d83e4f" stroke="#d83e4f" transform="translate(0 307.98496) translate(687.5046696500001 62.2688) scale(1.11) translate(-649.26125 40.32)"></path>
      </g>
      <image xlink:href="" id="icon" style="display: none;" x="0" y="0"></image>
    </g>
  </g>
</svg>
