<?xml version="1.0" encoding="utf-8"?>
<svg version="1.1" xmlns:xlink="http://www.w3.org/1999/xlink" width="436px" height="104px" xmlns="http://www.w3.org/2000/svg">
  <g>
    <path d="M 94.4243699999998 25.792  C 85.6403699999998 10.384  69.5123699999998 0.159999999999968  50.9363699999998 0.159999999999968  C 23.1443699999998 0.159999999999968  0.536369999999806 23.344  0.536369999999806 52  C 0.536369999999806 80.656  23.1443699999998 103.84  50.9363699999998 103.84  C 75.4163699999998 103.84  95.8643699999998 85.84  100.32837 61.936  C 100.61637 60.64  100.90437 58.624  101.04837 56.464  C 101.19237 53.008  98.4563699999999 50.128  95.00037 50.128  C 91.83237 50.128  89.24037 52.432  89.09637 55.6  C 88.80837 57.904  88.52037 60.496  88.2323699999999 61.936  C 83.9123699999999 79.216  68.7923699999999 92.032  50.9363699999999 92.032  C 29.7683699999999 92.032  12.4883699999999 74.032  12.4883699999999 52  C 12.4883699999999 29.968  29.7683699999999 12.112  50.9363699999999 12.112  C 65.0483699999999 12.112  77.2883699999999 19.888  84.0563699999999 31.696  C 85.0643699999999 33.568  87.0803699999999 34.72  89.2403699999999 34.72  C 93.8483699999998 34.72  96.7283699999999 29.824  94.4243699999998 25.792  Z M 276.55737 64.384  C 276.55737 42.496  259.27737 24.784  238.10937 24.784  C 216.94137 24.784  199.66137 42.496  199.66137 64.384  C 199.66137 86.128  216.94137 103.84  238.10937 103.84  C 259.27737 103.84  276.55737 86.128  276.55737 64.384  Z M 370.95163 69  L 430.27963 69  C 433.15963 69.568  435.46363 67.264  435.46363 64.384  C 435.46363 62.512  435.31963 60.784  435.17563 59.056  C 432.72763 39.76  416.59963 24.784  397.01563 24.784  C 375.84763 24.784  358.56763 42.496  358.56763 64.384  C 358.56763 86.128  375.84763 103.84  397.01563 103.84  C 408.96763 103.84  419.62363 98.368  426.53563 89.584  C 429.70363 85.696  426.82363 79.936  421.92763 79.936  C 420.05563 79.936  418.32763 80.8  417.17563 82.24  C 412.42363 88.144  405.07963 91.888  397.01563 91.888  C 387.94363 91.888  380.02363 87.28  375.12763 79.936  C 373.11163 76.912  371.67163 73.312  370.95163 69  Z M 116 68.5599999999999  L 115.61487 68.848  C 115.75887 88.1439999999999  131.16687 103.84  150.03087 103.84  C 168.89487 103.84  184.15887 88.1439999999999  184.30287 68.848  L 184 68.5599999999999  L 184 33.712  C 184.30287 30.4  181.71087 27.808  178.39887 27.808  C 175.08687 27.808  172.35087 30.4  172 33.712  L 172 68.5599999999999  C 172.35087 81.52  162.27087 91.888  150.03087 91.888  C 137.64687 91.888  127.56687 81.52  128 68.5599999999999  L 128 33.712  C 127.56687 30.4  124.83087 27.808  121.51887 27.808  C 118.35087 27.808  115.61487 30.4  116 33.712  L 116 68.5599999999999  Z M 295 96.496  C 294.69463 99.664  297.43063 102.4  300.59863 102  L 347.25463 102  C 350.56663 102.4  353.15863 99.664  353.15863 96.496  C 353.15863 93.184  350.56663 90.448  347.25463 90  L 307 90  L 307 7.50399999999996  C 306.64663 4.33599999999996  303.91063 1.59999999999997  300.59863 1.59999999999997  C 297.43063 1.59999999999997  294.69463 4.33600000000001  295 7.50399999999996  L 295 96.496  Z M 264.60537 64.384  C 264.60537 79.504  252.79737 91.888  238.10937 91.888  C 223.56537 91.888  211.61337 79.504  211.61337 64.384  C 211.61337 49.12  223.56537 36.736  238.10937 36.736  C 252.79737 36.736  264.60537 49.12  264.60537 64.384  Z M 72.8243699999999 51  L 53.09637 51  C 49.78437 50.128  47.04837 52.72  47.04837 56.032  C 47.04837 59.344  49.78437 61.936  53.09637 62  L 72.8243699999999 62  C 76.1363699999999 61.936  78.7283699999999 59.344  78.7283699999999 56.032  C 78.7283699999999 52.72  76.1363699999999 50.128  72.8243699999999 51  Z M 423.07963 59  L 370.95163 59  C 373.39963 46.384  384.05563 36.736  397.01563 36.736  C 409.97563 36.736  420.77563 46.384  423.07963 59  Z " fill-rule="nonzero" fill="#1c69ed" stroke="none" />
  </g>
</svg>